<svg width="9600" height="7848" viewBox="0 0 9600 7848" fill="none" xmlns="http://www.w3.org/2000/svg">
<g clip-path="url(#clip0_29_215)">
<mask id="mask0_29_215" style="mask-type:luminance" maskUnits="userSpaceOnUse" x="2300" y="0" width="5000" height="5000">
<path d="M2300 0H7300V5000H2300V0Z" fill="white"/>
</mask>
<g mask="url(#mask0_29_215)">
<path fill-rule="evenodd" clip-rule="evenodd" d="M6982.48 1868.18V2300.8H2617.52V1868.18H6982.48Z" fill="black"/>
<path fill-rule="evenodd" clip-rule="evenodd" d="M6825.91 1701.92C7037.2 1701.92 7208.48 1873.2 7208.48 2084.49C7208.48 2185.95 7168.17 2283.26 7096.43 2355C7024.68 2426.75 6927.37 2467.06 6825.91 2467.06C6614.62 2467.06 6443.34 2295.77 6443.34 2084.49C6443.34 1873.2 6614.62 1701.92 6825.91 1701.92Z" fill="black"/>
<path fill-rule="evenodd" clip-rule="evenodd" d="M2774.09 1701.92C2985.38 1701.92 3156.66 1873.2 3156.66 2084.49C3156.66 2185.95 3116.35 2283.26 3044.61 2355C2972.86 2426.75 2875.55 2467.06 2774.09 2467.06C2562.8 2467.06 2391.52 2295.77 2391.52 2084.49C2391.52 1873.2 2562.8 1701.92 2774.09 1701.92Z" fill="black"/>
<path fill-rule="evenodd" clip-rule="evenodd" d="M2474.69 2084.41C2474.69 1919.05 2608.74 1785.01 2774.09 1785.01C2853.5 1785.01 2929.65 1816.55 2985.8 1872.7C3041.95 1928.85 3073.49 2005 3073.49 2084.41C3073.49 2249.76 2939.44 2383.81 2774.09 2383.81C2608.74 2383.81 2474.69 2249.76 2474.69 2084.41Z" fill="white"/>
<path fill-rule="evenodd" clip-rule="evenodd" d="M6526.4 2084.49C6526.4 1919.13 6660.44 1785.09 6825.79 1785.09C6905.2 1785.09 6981.35 1816.63 7037.5 1872.78C7093.65 1928.93 7125.19 2005.08 7125.19 2084.49C7125.19 2249.84 6991.15 2383.89 6825.79 2383.89C6660.44 2383.89 6526.4 2249.84 6526.4 2084.49Z" fill="black"/>
<path fill-rule="evenodd" clip-rule="evenodd" d="M3249.5 2084.41C3249.5 1228.13 3943.65 533.988 4799.92 533.988C5211.12 533.988 5605.47 697.335 5896.23 988.095C6186.99 1278.85 6350.34 1673.21 6350.34 2084.41C6350.34 2940.68 5656.19 3634.82 4799.92 3634.82C3943.65 3634.82 3249.5 2940.68 3249.5 2084.41V2084.41Z" fill="black"/>
<path fill-rule="evenodd" clip-rule="evenodd" d="M3249.58 2084.49C3249.58 1228.21 3943.73 534.068 4800 534.068C5211.2 534.068 5605.55 697.415 5896.31 988.175C6187.07 1278.93 6350.42 1673.29 6350.42 2084.49C6350.42 2940.76 5656.27 3634.91 4800 3634.91C3943.73 3634.91 3249.58 2940.76 3249.58 2084.49H3249.58Z" fill="black"/>
<path fill-rule="evenodd" clip-rule="evenodd" d="M5972.46 3100.51L4800 4466.01L3627.54 3100.51H5972.46Z" fill="black"/>
<path fill-rule="evenodd" clip-rule="evenodd" d="M5972.46 3100.51L4800 4466.01L3627.54 3100.51H5972.46Z" stroke="#595959" stroke-width="0.963255" stroke-miterlimit="10" stroke-linejoin="round"/>
<path fill-rule="evenodd" clip-rule="evenodd" d="M3440.71 2084.41C3440.71 1333.73 4049.25 725.194 4799.92 725.194C5160.41 725.194 5506.13 868.396 5761.03 1123.3C6015.93 1378.2 6159.13 1723.92 6159.13 2084.41C6159.13 2835.08 5550.59 3443.62 4799.92 3443.62C4049.25 3443.62 3440.71 2835.08 3440.71 2084.41Z" fill="white"/>
<path fill-rule="evenodd" clip-rule="evenodd" d="M3774.03 1749.34C3774.03 1511.91 3966.5 1319.44 4203.93 1319.44C4317.94 1319.44 4427.29 1364.73 4507.91 1445.36C4588.53 1525.98 4633.82 1635.32 4633.82 1749.34C4633.82 1986.76 4441.35 2179.23 4203.93 2179.23C3966.5 2179.23 3774.03 1986.76 3774.03 1749.34Z" fill="black"/>
<path fill-rule="evenodd" clip-rule="evenodd" d="M3774.03 1749.34C3774.03 1511.91 3966.5 1319.44 4203.93 1319.44C4317.94 1319.44 4427.29 1364.73 4507.91 1445.36C4588.53 1525.98 4633.82 1635.32 4633.82 1749.34C4633.82 1986.76 4441.35 2179.23 4203.93 2179.23C3966.5 2179.23 3774.03 1986.76 3774.03 1749.34Z" stroke="black" stroke-width="19.4856" stroke-miterlimit="10" stroke-linejoin="round"/>
<path fill-rule="evenodd" clip-rule="evenodd" d="M4965.76 1749.34C4965.76 1511.91 5158.23 1319.44 5395.66 1319.44C5509.67 1319.44 5619.02 1364.73 5699.64 1445.36C5780.26 1525.98 5825.55 1635.32 5825.55 1749.34C5825.55 1986.76 5633.08 2179.23 5395.66 2179.23C5158.23 2179.23 4965.76 1986.76 4965.76 1749.34Z" fill="black"/>
<path fill-rule="evenodd" clip-rule="evenodd" d="M4965.76 1749.34C4965.76 1511.91 5158.23 1319.44 5395.66 1319.44C5509.67 1319.44 5619.02 1364.73 5699.64 1445.36C5780.26 1525.98 5825.55 1635.32 5825.55 1749.34C5825.55 1986.76 5633.08 2179.23 5395.66 2179.23C5158.23 2179.23 4965.76 1986.76 4965.76 1749.34Z" stroke="black" stroke-width="19.4856" stroke-miterlimit="10" stroke-linejoin="round"/>
<path fill-rule="evenodd" clip-rule="evenodd" d="M4109.42 2579.07H5490.58V2948.59H4109.42V2579.07Z" fill="black"/>
<path fill-rule="evenodd" clip-rule="evenodd" d="M4109.42 2579.07H5490.58V2948.59H4109.42V2579.07Z" stroke="black" stroke-width="10.8451" stroke-miterlimit="10" stroke-linejoin="round"/>
</g>
</g>
<path d="M0 7848H9562L4981.5 4267H4617.5L0 7848Z" fill="black" fill-opacity="0.29"/>
<path d="M1743.64 7017.69C1680.82 7113.26 1617.99 7204.72 1555.17 7292.05C1555.17 7258.29 1555.17 7224.54 1555.17 7190.79C1572.99 7160.16 1590.82 7130.59 1608.64 7102.07C1625.46 7072.11 1643.28 7042.2 1662.11 7012.34C1680.93 6980.38 1699.76 6948.18 1718.58 6915.77C1796.33 6768.07 1874.19 6607.11 1952.17 6432.89C1995.16 6400.59 2038.21 6368.29 2081.32 6335.98C1970.6 6586.05 1860.05 6812.4 1749.66 7015.02L1743.64 7017.69ZM1586.42 7499.06C1553.22 7507.19 1520.08 7515.83 1487 7524.96C1487 7280.35 1487 7034.34 1487 6786.95C1520.19 6762.78 1553.44 6737.94 1586.75 6712.43C1586.53 6813.57 1586.42 6909.03 1586.42 6998.81C1585.86 7054.06 1585.36 7109.09 1584.91 7163.89C1585.36 7179.6 1585.86 7195.3 1586.42 7211.01C1586.42 7306.69 1586.42 7402.71 1586.42 7499.06ZM2081.99 7412.01C2043 7418.25 2003.96 7424.49 1964.86 7430.73C1870.74 7297.5 1776.73 7178.37 1682.82 7073.33C1703.65 7036.57 1724.43 6998.92 1745.15 6960.38C1857.32 7091.26 1969.6 7241.81 2081.99 7412.01ZM2356.18 7389.12C2319.64 7394.58 2286.56 7389.34 2256.93 7373.42C2226.3 7358.6 2202.07 7333.98 2184.25 7299.56C2166.42 7266.48 2157.46 7223.48 2157.35 7170.57C2157.35 7124.46 2164.25 7084.8 2178.06 7051.61C2190.87 7017.97 2208.2 6988.62 2230.03 6963.56C2252.64 6937.49 2277.31 6914.71 2304.05 6895.22C2330.56 6875.5 2357.18 6857.9 2383.91 6842.42C2418.56 6820.25 2447.13 6802.88 2469.63 6790.29C2491.46 6776.36 2507.33 6762.39 2517.25 6748.35C2528.05 6733.76 2533.45 6714.71 2533.45 6691.21C2533.57 6645.87 2529.17 6611.01 2520.25 6586.61C2511.34 6562.44 2498.09 6547.4 2480.49 6541.5C2461.66 6536.49 2438.94 6541.16 2412.32 6555.53C2384.69 6570.46 2361.02 6589.56 2341.31 6612.84C2321.48 6637.35 2305.16 6662.86 2292.35 6689.37C2280.43 6716.55 2271.02 6741.5 2264.11 6764.22C2234.48 6764 2204.85 6764.17 2175.22 6764.72C2190.15 6704.8 2209.98 6653.06 2234.71 6609.5C2260.44 6563.94 2288.62 6524.96 2319.25 6492.54C2349.88 6461.24 2380.01 6436.68 2409.64 6418.86C2429.36 6406.94 2451.53 6397.92 2476.14 6391.79C2500.87 6385.89 2525.04 6388.28 2548.66 6398.98C2571.27 6410.89 2589.93 6436.68 2604.63 6476.34C2620.34 6517.88 2628.19 6579.04 2628.19 6659.79C2628.19 6883.02 2628.3 7104.97 2628.53 7325.63C2597.45 7330.53 2566.37 7335.38 2535.29 7340.17C2535.18 7296.72 2535.13 7253.34 2535.13 7210.01C2524.32 7233.4 2512.01 7258.57 2498.2 7285.53C2483.38 7310.59 2464.11 7333.04 2440.39 7352.86C2417.89 7372.02 2389.82 7384.11 2356.18 7389.12ZM2372.38 7258.29C2406.92 7251.17 2436.49 7234.73 2461.11 7209C2484.72 7181.27 2502.93 7148.07 2515.74 7109.42C2527.55 7070.32 2533.45 7031.11 2533.45 6991.79C2533.45 6946.57 2533.45 6901.29 2533.45 6855.95C2529.44 6865.64 2521.03 6876.11 2508.22 6887.36C2495.41 6896.83 2481.16 6906.8 2465.45 6917.27C2448.52 6928.08 2432.2 6937.77 2416.49 6946.35C2401.68 6954.7 2389.82 6961.22 2380.91 6965.89C2358.29 6978.26 2337.13 6993.07 2317.41 7010.34C2297.59 7025.82 2281.77 7045.59 2269.96 7069.65C2258.15 7092.04 2252.25 7118.89 2252.25 7150.19C2252.25 7180.27 2257.71 7203.27 2268.62 7219.2C2278.54 7237.24 2292.35 7249.44 2310.06 7255.79C2328.89 7262.25 2349.66 7263.08 2372.38 7258.29ZM2885.67 7285.53C2854.59 7290.32 2823.57 7295.11 2792.6 7299.9C2792.27 6941.67 2792.27 6577.48 2792.6 6207.33C2822.68 6190.17 2852.75 6173.02 2882.83 6155.87C2882.72 6215.46 2882.61 6274.83 2882.49 6333.98C2897.42 6268.93 2918.7 6209.83 2946.32 6156.7C2973.83 6104.46 3004.86 6068.59 3039.39 6049.1C3046.18 6045.2 3054.54 6041.52 3064.45 6038.07C3073.25 6033.06 3080.6 6028.94 3086.51 6025.71C3086.39 6093.65 3086.34 6161.49 3086.34 6229.22C3083.33 6228.55 3076.43 6229.88 3065.62 6233.23C3054.82 6234.45 3043.01 6238.24 3030.2 6244.59C3002.68 6258.51 2978.07 6283.02 2956.35 6318.11C2933.73 6353.08 2916.47 6394.07 2904.55 6441.08C2891.74 6485.86 2885.34 6534.37 2885.34 6586.61C2885.34 6821.31 2885.45 7054.28 2885.67 7285.53ZM3435.88 7230.39C3379.85 7237.97 3331.62 7217.92 3291.19 7170.24C3249.97 7124.46 3218.5 7055.56 3196.78 6963.56C3175.06 6875.11 3164.2 6767.95 3164.2 6642.08C3164.2 6512.87 3174.56 6394.35 3195.28 6286.53C3217 6175.47 3247.58 6080.9 3287.01 6002.82C3326.33 5922.28 3372.56 5867.59 3425.69 5838.74C3456.1 5822.36 3486.01 5818.41 3515.41 5826.88C3545.82 5837.9 3572.78 5865.86 3596.28 5910.75C3620.68 5956.2 3640.23 6021.75 3654.93 6107.41C3669.63 6195.97 3676.93 6308.3 3676.82 6444.42C3676.82 6476.39 3676.82 6508.3 3676.82 6540.16C3527.22 6585.28 3377.51 6631.39 3227.69 6678.51C3227.69 6620.47 3227.69 6562.33 3227.69 6504.07C3360.69 6454.73 3493.75 6406.1 3626.86 6358.21C3612.16 6387.61 3597.45 6416.91 3582.75 6446.09C3582.75 6352.08 3576.85 6271.1 3565.04 6203.15C3553.34 6135.65 3535.69 6086.75 3512.07 6056.45C3488.68 6026.82 3459.77 6020.25 3425.35 6036.73C3389.93 6054 3359.91 6089.09 3335.3 6142C3309.79 6192.24 3290.63 6251.38 3277.82 6319.44C3265.01 6386.5 3258.6 6455.06 3258.6 6525.12C3258.6 6563.33 3258.6 6601.43 3258.6 6639.41C3258.6 6734.54 3266.01 6812.46 3280.83 6873.16C3295.53 6936.54 3316.14 6982.83 3342.65 7012.01C3369.27 7039.64 3400.29 7050.16 3435.71 7043.59C3458.21 7039.47 3478.77 7028.89 3497.37 7011.84C3516.08 6992.24 3532.29 6964.95 3545.99 6929.97C3559.69 6896.78 3569.99 6856.01 3576.9 6807.67C3606.75 6820.92 3636.61 6834.4 3666.46 6848.1C3657.77 6919.06 3642.68 6983.61 3621.18 7041.75C3600.57 7096.22 3574.06 7140.78 3541.65 7175.42C3510.35 7206.83 3475.09 7225.16 3435.88 7230.39ZM3810.32 5137.98C3841.62 5117.93 3872.92 5097.94 3904.22 5078C3903.66 5781.43 3903.5 6469.49 3903.72 7142.17C3872.31 7145.96 3840.95 7149.8 3809.65 7153.7C3809.43 6496.39 3809.65 5824.48 3810.32 5137.98ZM4301.55 7132.98C4248.75 7137.32 4202.75 7108.64 4163.54 7046.93C4124.33 6986.22 4093.47 6897.22 4070.97 6779.93C4049.36 6662.41 4038.56 6523.34 4038.56 6362.72C4038.56 6194.07 4049.36 6043.75 4070.97 5911.75C4093.58 5773.3 4124.49 5658.29 4163.7 5566.72C4202.8 5475.83 4248.75 5418.02 4301.55 5393.29C4354.35 5369.34 4400.3 5387.83 4439.39 5448.76C4478.49 5516.38 4509.24 5619.47 4531.63 5758.04C4553.12 5894.04 4563.87 6056.9 4563.87 6246.59C4563.87 6424.93 4553.12 6581.6 4531.63 6716.6C4509.24 6848.04 4478.49 6949.63 4439.39 7021.37C4400.3 7091.88 4354.35 7129.08 4301.55 7132.98ZM4301.38 6907.42C4339.59 6903.29 4371.39 6870.88 4396.79 6810.17C4422.18 6751.36 4440.73 6674.33 4452.43 6579.09C4464.12 6481.96 4469.97 6375.97 4469.97 6261.13C4469.97 6144.5 4464.12 6036.01 4452.43 5935.65C4440.73 5837.96 4422.18 5761.04 4396.79 5704.9C4371.39 5653.11 4339.64 5634.5 4301.55 5649.1C4262.34 5664.58 4230.48 5706.3 4205.98 5774.24C4181.58 5843.97 4162.98 5927.96 4150.17 6026.21C4138.36 6125.35 4132.46 6229.05 4132.46 6337.32C4132.46 6444.37 4138.36 6541.55 4150.17 6628.88C4162.87 6715.77 4181.47 6784.27 4205.98 6834.4C4230.48 6887.64 4262.28 6911.98 4301.38 6907.42ZM4932.96 7700.4C4890.08 7700.29 4853.04 7685.98 4821.85 7657.46C4791.55 7628.94 4765.71 7591.18 4744.32 7544.18C4723.83 7496.84 4707.68 7443.98 4695.87 7385.61C4720.82 7341.06 4745.72 7296.39 4770.56 7251.61C4779.36 7281.46 4789.6 7315.21 4801.3 7352.86C4814 7390.29 4830.6 7422.37 4851.09 7449.11C4871.59 7473.05 4898.93 7485.14 4933.13 7485.36C4979.02 7485.92 5016.62 7457.46 5045.91 7399.98C5076.21 7339.72 5091.42 7244.87 5091.53 7115.44C5091.53 7006.94 5091.53 6897.39 5091.53 6786.78C5078.83 6816.85 5066.63 6853.95 5054.94 6898.06C5043.13 6939.16 5025.97 6975.86 5003.47 7008.17C4981.08 7040.58 4951.29 7056.23 4914.08 7055.12C4868.19 7054.34 4827.2 7021.76 4791.11 6957.37C4754.02 6895.44 4724.72 6802.99 4703.22 6680.01C4682.61 6554.81 4672.31 6400.31 4672.31 6216.52C4672.31 6026.82 4682.61 5858.62 4703.22 5711.92C4723.72 5561.1 4752.51 5443.92 4789.6 5360.37C4826.7 5275.94 4869.19 5237.84 4917.09 5246.09C4954.18 5256.22 4983.98 5286.3 5006.48 5336.31C5027.98 5382.43 5044.58 5433.11 5056.27 5488.36C5068.97 5543.39 5078.27 5589.17 5084.18 5625.71C5089.97 5527.79 5092.86 5428.71 5092.86 5328.46C5123.16 5340.6 5153.46 5353.02 5183.76 5365.72C5183.98 5976.92 5183.98 6566 5183.76 7132.98C5183.76 7268.88 5172.45 7378.43 5149.84 7461.64C5127.34 7544.29 5097.04 7604.72 5058.95 7642.92C5021.85 7681.35 4979.86 7700.51 4932.96 7700.4ZM4930.29 6815.18C4965.49 6816.74 4994.84 6795.47 5018.34 6751.36C5042.74 6707.47 5061.29 6641.42 5073.98 6553.19C5085.79 6464.08 5091.69 6355.7 5091.69 6228.05C5091.69 6101.17 5085.79 5988.78 5073.98 5890.87C5061.29 5787.83 5043.18 5704.79 5019.68 5641.75C4995.29 5577.81 4965.49 5542.22 4930.29 5534.98C4894.2 5529.74 4863.9 5557.65 4839.4 5618.69C4815 5680.62 4796.46 5763.49 4783.76 5867.31C4772.06 5969.34 4766.21 6081.12 4766.21 6202.65C4766.21 6327.52 4772.56 6436.24 4785.26 6528.8C4796.96 6619.81 4815 6690.04 4839.4 6739.49C4863.9 6788.84 4894.2 6814.07 4930.29 6815.18ZM5439.06 7114.1C5408.21 7111.09 5377.41 7108.2 5346.67 7105.41C5346.78 6566.28 5346.72 6010.72 5346.5 5438.74C5376.35 5452.77 5406.2 5466.86 5436.06 5481.01C5436.17 5567.45 5436.22 5653.78 5436.22 5739.99C5450.82 5663.13 5471.81 5603.93 5499.22 5562.38C5526.51 5524.84 5557.31 5514.59 5591.61 5531.64C5598.52 5535.09 5606.87 5540.66 5616.68 5548.34C5626.48 5553.25 5633.83 5556.92 5638.73 5559.37C5638.84 5646.81 5638.9 5734.14 5638.9 5821.36C5636.89 5817.69 5630.04 5811.95 5618.35 5804.15C5607.54 5794.02 5595.79 5786.16 5583.09 5780.59C5555.69 5768.79 5531.24 5775.19 5509.74 5799.81C5488.13 5824.98 5470.98 5864.92 5458.28 5919.61C5445.58 5971.74 5439.29 6035.9 5439.4 6112.09C5439.4 6452.72 5439.29 6786.72 5439.06 7114.1ZM5906.4 7200.65C5870.09 7196.31 5836.73 7175.36 5806.32 7137.83C5777.02 7099.73 5753.57 7045.98 5735.97 6976.59C5718.26 6905.97 5709.41 6821.2 5709.41 6722.28C5709.52 6635.29 5716.48 6566.62 5730.29 6516.27C5742.99 6465.81 5760.15 6428.49 5781.76 6404.32C5804.26 6380.82 5828.76 6365.84 5855.27 6359.38C5881.67 6353.25 5908.13 6351.08 5934.64 6352.86C5968.95 6352.64 5996.85 6353.97 6018.35 6356.87C6041.07 6357.87 6057.34 6353.08 6067.14 6342.5C6077.94 6332.25 6083.34 6310.53 6083.34 6277.34C6083.23 6212.95 6078.72 6158.43 6069.81 6113.76C6061.01 6068.98 6047.31 6031.33 6028.71 6000.81C6011 5970.51 5988.89 5949.13 5962.38 5936.65C5934.86 5923.73 5911.3 5922.89 5891.7 5934.14C5872.2 5948.18 5856.05 5969.07 5843.24 5996.8C5831.55 6027.77 5822.3 6058.62 5815.51 6089.37C5785.54 6051.38 5755.58 6013.12 5725.62 5974.58C5741.32 5886.25 5761.37 5821.42 5785.77 5780.09C5811.27 5740.33 5839.18 5716.54 5869.48 5708.75C5899.77 5703.96 5929.63 5709.3 5959.03 5724.79C5978.64 5735.15 6000.75 5753.02 6025.37 5778.42C6049.87 5803.48 6073.49 5838.91 6096.21 5884.69C6119.82 5930.13 6139.04 5988.39 6153.85 6059.46C6168.56 6131.75 6175.97 6221.31 6176.08 6328.13C6176.08 6624.09 6175.97 6916.6 6175.74 7205.66C6145.33 7201.43 6114.87 7197.2 6084.35 7192.96C6084.35 7132.81 6084.4 7072.55 6084.51 7012.18C6073.82 7040.03 6061.07 7069.88 6046.25 7101.74C6032.44 7131.81 6013.78 7156.76 5990.28 7176.59C5967.67 7196.86 5939.71 7204.88 5906.4 7200.65ZM5922.61 7003.99C5956.92 7010.01 5985.88 6999.98 6009.49 6973.92C6034.11 6946.18 6052.32 6908.08 6064.13 6859.63C6076.94 6811.62 6083.34 6759.82 6083.34 6704.24C6083.34 6640.08 6083.34 6575.75 6083.34 6511.26C6079.33 6521.73 6070.98 6529.69 6058.28 6535.15C6045.58 6538.16 6030.88 6540.66 6014.17 6542.67C5998.47 6545.12 5982.7 6546.34 5966.89 6546.34C5951.29 6546.57 5939.04 6546.57 5930.13 6546.34C5907.63 6547.24 5887.08 6553.64 5868.47 6565.56C5848.87 6575.14 5833.16 6595.86 5821.36 6627.71C5809.66 6657.23 5803.76 6699.45 5803.64 6754.37C5803.64 6806.38 5808.55 6849.44 5818.35 6883.52C5829.04 6919.72 5843.24 6947.91 5860.95 6968.07C5879.56 6988.23 5900.11 7000.2 5922.61 7003.99ZM6432.89 7692.38C6401.48 7691.71 6370.06 7691.04 6338.65 7690.38C6339.32 7121.4 6339.49 6540.16 6339.15 5946.68C6369.56 5963.27 6400.08 5979.98 6430.71 5996.8C6430.71 6065.64 6430.77 6134.15 6430.88 6202.32C6443.69 6184.83 6455.94 6161.88 6467.64 6133.48C6479.45 6105.41 6496.66 6084.69 6519.27 6071.32C6540.77 6055.84 6570.73 6058.96 6609.16 6080.68C6657.39 6107.97 6699.78 6156.76 6736.31 6227.04C6773.74 6293.77 6802.87 6375.92 6823.7 6473.49C6844.42 6566.17 6854.83 6669.82 6854.94 6784.44C6854.83 6895.94 6844.42 6990.29 6823.7 7067.48C6802.98 7146.35 6774.35 7204.55 6737.82 7242.09C6700.39 7283.08 6657.56 7300.07 6609.33 7293.05C6572.9 7287.81 6543.39 7271.55 6520.77 7244.26C6498.16 7214.52 6480.95 7181.43 6469.14 7145.01C6456.45 7109.81 6447.15 7080.35 6441.24 7056.62C6436.12 7269.04 6433.33 7480.96 6432.89 7692.38ZM6594.63 7126.96C6631.05 7134.21 6661.63 7121.34 6686.36 7088.37C6710.97 7056.29 6729.18 7010.9 6740.99 6952.19C6753.91 6892.49 6760.37 6824.26 6760.37 6747.51C6760.26 6670.32 6754.3 6597.81 6742.5 6529.97C6729.69 6460.46 6710.92 6401.15 6686.19 6352.02C6662.57 6302.23 6632.05 6267.81 6594.63 6248.77C6559.2 6230.94 6529.69 6235.06 6506.07 6261.13C6481.56 6287.64 6462.96 6333.14 6450.26 6397.64C6438.46 6460.91 6432.55 6539.1 6432.55 6632.23C6432.55 6722.56 6438.96 6804.94 6451.77 6879.34C6463.46 6950.19 6481.62 7007.72 6506.24 7051.94C6530.74 7095.05 6560.21 7120.06 6594.63 7126.96ZM7085.52 6767.56C7085.52 6960.27 7085.41 7152.36 7085.19 7343.84C7053.66 7338.83 7022.08 7333.82 6990.45 7328.8C6990.67 6883.69 6990.45 6424.59 6989.78 5951.52C7021.31 5974.13 7052.83 5996.75 7084.35 6019.36C7084.8 6221.75 7085.13 6419.64 7085.35 6613.01C7092.15 6525.35 7111.81 6471.21 7144.34 6450.6C7176.86 6431.33 7215.35 6435.07 7259.79 6461.8C7298.33 6485.3 7332.42 6518.33 7362.05 6560.88C7392.68 6604.43 7415.96 6654.67 7431.89 6711.59C7448.71 6765.62 7457.17 6827.1 7457.29 6896.05C7457.29 7064.7 7457.17 7233.57 7456.95 7402.66C7425.32 7397.64 7393.68 7392.63 7362.05 7387.62C7362.27 7214.07 7362.38 7040.53 7362.38 6866.98C7362.38 6800.26 7350.96 6742.67 7328.13 6694.21C7304.4 6641.97 7272.32 6604.82 7231.89 6582.77C7204.26 6567.84 7179.09 6564.17 7156.37 6571.74C7134.64 6581.99 7117.43 6603.04 7104.74 6634.9C7091.93 6668.76 7085.52 6712.98 7085.52 6767.56ZM7612.01 7708.09C7620.03 7671.44 7628.05 7635.35 7636.07 7599.82C7661.8 7609.4 7682.57 7613.46 7698.39 7612.01C7714.21 7610.57 7728.08 7601.54 7739.99 7584.95C7752.92 7570.24 7763.83 7546.74 7772.74 7514.44C7778.76 7496.06 7784.72 7477.9 7790.62 7459.97C7716.1 7214.24 7641.41 6947.85 7566.56 6660.8C7601.2 6682.18 7635.84 6703.57 7670.49 6724.96C7711.7 6890.04 7752.8 7046.04 7793.8 7192.96C7807.72 7237.41 7819.08 7279.63 7827.88 7319.61C7836.79 7360.38 7846.2 7400.09 7856.12 7438.75C7844.65 7436.52 7833.23 7434.29 7821.87 7432.06C7831.78 7397.2 7841.69 7361.89 7851.61 7326.13C7860.52 7291.04 7871.43 7256.96 7884.36 7223.87C7925.9 7122.06 7967.4 7022.76 8008.83 6925.96C8043.03 6943.12 8077.17 6959.32 8111.26 6974.58C8026.15 7156.48 7941.05 7353.59 7855.95 7565.9C7843.92 7600.76 7829.5 7629.72 7812.68 7652.78C7795.74 7677.07 7776.36 7695.33 7754.53 7707.59C7732.81 7720.4 7708.08 7726.52 7680.34 7725.97C7663.52 7725.74 7649.16 7723.46 7637.24 7719.11C7625.43 7716 7617.02 7712.32 7612.01 7708.09Z" fill="black" stroke="black"/>
<defs>
<clipPath id="clip0_29_215">
<rect width="5000" height="5000" fill="white" transform="translate(2300)"/>
</clipPath>
</defs>
</svg>
