<svg width="19200" height="9600" viewBox="0 0 19200 9600" fill="none" xmlns="http://www.w3.org/2000/svg">
<g clip-path="url(#clip0_29_185)">
<mask id="mask0_29_185" style="mask-type:luminance" maskUnits="userSpaceOnUse" x="0" y="1771" width="6595" height="6595">
<path d="M0 1771H6595V8366H0V1771Z" fill="white"/>
</mask>
<g mask="url(#mask0_29_185)">
<path fill-rule="evenodd" clip-rule="evenodd" d="M6176.19 4235.12V4805.75H418.807V4235.12H6176.19Z" fill="black"/>
<path fill-rule="evenodd" clip-rule="evenodd" d="M5969.67 4015.83C6248.36 4015.83 6474.28 4241.75 6474.28 4520.44C6474.28 4654.27 6421.12 4782.62 6326.49 4877.25C6231.85 4971.88 6103.51 5025.05 5969.67 5025.05C5690.99 5025.05 5465.07 4799.13 5465.07 4520.44C5465.07 4241.75 5690.99 4015.83 5969.67 4015.83Z" fill="black"/>
<path fill-rule="evenodd" clip-rule="evenodd" d="M625.325 4015.83C904.012 4015.83 1129.93 4241.75 1129.93 4520.44C1129.93 4654.27 1076.77 4782.62 982.137 4877.25C887.504 4971.88 759.155 5025.05 625.325 5025.05C346.638 5025.05 120.717 4799.13 120.717 4520.44C120.717 4241.75 346.638 4015.83 625.325 4015.83Z" fill="black"/>
<path fill-rule="evenodd" clip-rule="evenodd" d="M230.417 4520.33C230.417 4302.23 407.223 4125.42 625.325 4125.42C730.061 4125.42 830.508 4167.03 904.567 4241.09C978.627 4315.15 1020.23 4415.6 1020.23 4520.33C1020.23 4738.43 843.427 4915.24 625.325 4915.24C407.223 4915.24 230.417 4738.43 230.417 4520.33Z" fill="white"/>
<path fill-rule="evenodd" clip-rule="evenodd" d="M5574.61 4520.44C5574.61 4302.34 5751.42 4125.53 5969.52 4125.53C6074.26 4125.53 6174.71 4167.14 6248.77 4241.2C6322.83 4315.25 6364.43 4415.7 6364.43 4520.44C6364.43 4738.54 6187.63 4915.35 5969.52 4915.35C5751.42 4915.35 5574.61 4738.54 5574.61 4520.44Z" fill="black"/>
<path fill-rule="evenodd" clip-rule="evenodd" d="M1252.39 4520.33C1252.39 3390.91 2167.97 2475.33 3297.39 2475.33C3839.76 2475.33 4359.92 2690.78 4743.43 3074.3C5126.94 3457.81 5342.4 3977.96 5342.4 4520.33C5342.4 5649.75 4426.82 6565.33 3297.39 6565.33C2167.97 6565.33 1252.39 5649.75 1252.39 4520.33V4520.33Z" fill="black"/>
<path fill-rule="evenodd" clip-rule="evenodd" d="M1252.5 4520.44C1252.5 3391.01 2168.08 2475.44 3297.5 2475.44C3839.87 2475.44 4360.02 2690.89 4743.53 3074.4C5127.05 3457.92 5342.5 3978.07 5342.5 4520.44C5342.5 5649.86 4426.92 6565.44 3297.5 6565.44C2168.08 6565.44 1252.5 5649.86 1252.5 4520.44H1252.5Z" fill="black"/>
<path fill-rule="evenodd" clip-rule="evenodd" d="M4843.97 5860.57L3297.5 7661.67L1751.03 5860.57H4843.97Z" fill="black"/>
<path fill-rule="evenodd" clip-rule="evenodd" d="M4843.97 5860.57L3297.5 7661.67L1751.03 5860.57H4843.97Z" stroke="#595959" stroke-width="0.963255" stroke-miterlimit="10" stroke-linejoin="round"/>
<path fill-rule="evenodd" clip-rule="evenodd" d="M1504.59 4520.33C1504.59 3530.19 2307.26 2727.53 3297.39 2727.53C3772.87 2727.53 4228.88 2916.41 4565.1 3252.63C4901.31 3588.85 5090.2 4044.85 5090.2 4520.33C5090.2 5510.47 4287.53 6313.13 3297.39 6313.13C2307.26 6313.13 1504.59 5510.47 1504.59 4520.33Z" fill="white"/>
<path fill-rule="evenodd" clip-rule="evenodd" d="M1944.25 4078.37C1944.25 3765.21 2198.12 3511.34 2511.28 3511.34C2661.67 3511.34 2805.89 3571.09 2912.23 3677.42C3018.57 3783.76 3078.31 3927.99 3078.31 4078.37C3078.31 4391.54 2824.44 4645.4 2511.28 4645.4C2198.12 4645.4 1944.25 4391.54 1944.25 4078.37Z" fill="black"/>
<path fill-rule="evenodd" clip-rule="evenodd" d="M1944.25 4078.37C1944.25 3765.21 2198.12 3511.34 2511.28 3511.34C2661.67 3511.34 2805.89 3571.09 2912.23 3677.42C3018.57 3783.76 3078.31 3927.99 3078.31 4078.37C3078.31 4391.54 2824.44 4645.4 2511.28 4645.4C2198.12 4645.4 1944.25 4391.54 1944.25 4078.37Z" stroke="black" stroke-width="19.4856" stroke-miterlimit="10" stroke-linejoin="round"/>
<path fill-rule="evenodd" clip-rule="evenodd" d="M3516.14 4078.37C3516.14 3765.21 3770.01 3511.34 4083.17 3511.34C4233.56 3511.34 4377.78 3571.09 4484.12 3677.42C4590.46 3783.76 4650.2 3927.99 4650.2 4078.37C4650.2 4391.54 4396.33 4645.4 4083.17 4645.4C3770.01 4645.4 3516.14 4391.54 3516.14 4078.37Z" fill="black"/>
<path fill-rule="evenodd" clip-rule="evenodd" d="M3516.14 4078.37C3516.14 3765.21 3770.01 3511.34 4083.17 3511.34C4233.56 3511.34 4377.78 3571.09 4484.12 3677.42C4590.46 3783.76 4650.2 3927.99 4650.2 4078.37C4650.2 4391.54 4396.33 4645.4 4083.17 4645.4C3770.01 4645.4 3516.14 4391.54 3516.14 4078.37Z" stroke="black" stroke-width="19.4856" stroke-miterlimit="10" stroke-linejoin="round"/>
<path fill-rule="evenodd" clip-rule="evenodd" d="M2386.63 5172.8H4208.37V5660.19H2386.63V5172.8Z" fill="black"/>
<path fill-rule="evenodd" clip-rule="evenodd" d="M2386.63 5172.8H4208.37V5660.19H2386.63V5172.8Z" stroke="black" stroke-width="10.8451" stroke-miterlimit="10" stroke-linejoin="round"/>
</g>
</g>
<path d="M19200 9600V38.5L5764 4104.5V4953.5L19200 9600Z" fill="black" fill-opacity="0.29"/>
<path d="M8132.56 4468.99C8028.14 4655.91 7923.72 4839.04 7819.3 5018.38C7819.3 4924.09 7819.3 4829.8 7819.3 4735.51C7848.93 4668.47 7878.55 4605.22 7908.17 4545.75C7936.13 4482.5 7965.75 4421.49 7997.04 4362.74C8028.33 4300.2 8059.61 4238.24 8090.9 4176.89C8220.13 3913.92 8349.54 3637.09 8479.14 3346.4C8550.6 3328.87 8622.16 3311.34 8693.81 3293.81C8509.78 3710.06 8326.03 4101.55 8142.56 4468.28L8132.56 4468.99ZM7871.24 5620.37C7816.06 5616.58 7760.99 5613.5 7706 5611.13C7706 4919.83 7706 4227.23 7706 3533.33C7761.17 3521.24 7816.44 3508.69 7871.79 3495.66C7871.42 3748.67 7871.24 3996.12 7871.24 4238.01C7870.31 4389.16 7869.48 4540.18 7868.74 4691.09C7869.48 4734.92 7870.31 4778.87 7871.24 4822.93C7871.24 5088.27 7871.24 5354.08 7871.24 5620.37ZM8694.92 5725.55C8630.12 5716.55 8565.23 5707.43 8500.24 5698.19C8343.8 5298.29 8187.55 4915.09 8031.47 4548.59C8066.09 4474.21 8100.62 4398.99 8135.06 4322.94C8321.49 4766.9 8508.11 5234.44 8694.92 5725.55ZM9150.64 5835C9089.91 5826 9034.92 5795.09 8985.68 5742.25C8934.76 5690.61 8894.5 5620.13 8864.87 5530.81C8835.25 5443.16 8820.35 5338.68 8820.16 5217.39C8820.16 5111.96 8831.64 5027.03 8854.6 4962.59C8875.89 4897.2 8904.68 4845.44 8940.97 4807.3C8978.55 4768.68 9019.56 4739.19 9063.99 4718.81C9108.05 4698.2 9152.3 4682.33 9196.73 4671.19C9254.31 4652.48 9301.8 4639.09 9339.2 4631.04C9375.49 4619.43 9401.87 4603.08 9418.35 4582C9436.3 4560.68 9445.28 4526.09 9445.28 4478.23C9445.47 4385.6 9438.16 4310.74 9423.34 4253.64C9408.53 4196.79 9386.5 4154.62 9357.25 4127.13C9325.96 4100.13 9288.19 4089.35 9243.95 4094.8C9198.03 4100.25 9158.69 4118.13 9125.92 4148.46C9092.96 4181.62 9065.84 4220.48 9044.55 4265.02C9024.74 4312.16 9009.1 4357.05 8997.62 4399.7C8948.37 4371.74 8899.12 4344.26 8849.88 4317.25C8874.69 4200.93 8907.64 4108.06 8948.74 4038.65C8991.51 3967.58 9038.35 3913.33 9089.26 3875.89C9140.18 3841.31 9190.26 3819.98 9239.5 3811.93C9272.27 3806.72 9309.11 3809.44 9350.03 3820.1C9391.13 3831 9431.31 3857.89 9470.55 3900.77C9508.14 3944.6 9539.15 4012.35 9563.59 4104.04C9589.69 4199.75 9602.74 4328.27 9602.74 4489.6C9602.74 4942.81 9602.93 5397.32 9603.3 5853.13C9551.65 5845.78 9499.99 5838.56 9448.34 5831.45C9448.15 5739.77 9448.06 5648.2 9448.06 5556.76C9430.1 5599.4 9409.64 5645.24 9386.69 5694.28C9362.06 5739.06 9330.03 5775.78 9290.6 5804.44C9253.2 5832.87 9206.55 5843.06 9150.64 5835ZM9177.57 5559.24C9234.97 5565.17 9284.12 5548.35 9325.04 5508.78C9364.29 5464.72 9394.56 5406.08 9415.85 5332.88C9435.47 5258.73 9445.28 5180.66 9445.28 5098.69C9445.28 5004.64 9445.28 4910.59 9445.28 4816.54C9438.62 4833.83 9424.64 4849.35 9403.35 4863.09C9382.06 4873.28 9358.36 4883.35 9332.26 4893.3C9304.12 4903.25 9276.99 4911.54 9250.89 4918.17C9226.26 4924.57 9206.55 4929.31 9191.74 4932.39C9154.15 4941.86 9118.98 4957.73 9086.21 4980C9053.25 4998.72 9026.96 5030.23 9007.34 5074.53C8987.71 5115.28 8977.9 5170.71 8977.9 5240.84C8977.9 5307.65 8986.97 5362.61 9005.12 5405.73C9021.59 5452.4 9044.55 5488.53 9073.99 5514.11C9105.28 5540.17 9139.8 5555.22 9177.57 5559.24ZM10030.7 5911.76C9979.04 5904.66 9927.48 5897.55 9876.01 5890.44C9875.45 5173.56 9875.45 4456.2 9876.01 3738.37C9926 3730.55 9975.98 3722.73 10026 3714.92C10025.8 3827.68 10025.6 3940.21 10025.4 4052.51C10050.2 3940.69 10085.6 3845.69 10131.5 3767.51C10177.2 3691.7 10228.8 3649.29 10286.2 3640.29C10297.5 3638.39 10311.4 3638.16 10327.8 3639.58C10342.5 3637.21 10354.7 3635.2 10364.5 3633.54C10364.3 3758.86 10364.2 3884.07 10364.2 4009.15C10359.2 4005.84 10347.7 4003.23 10329.8 4001.34C10311.8 3995.65 10292.2 3993.99 10270.9 3996.36C10225.2 4001.57 10184.3 4029.06 10148.2 4078.81C10110.6 4127.85 10081.9 4192.64 10062.1 4273.19C10040.8 4349.47 10030.1 4437.72 10030.1 4537.93C10030.1 4994.69 10030.3 5452.63 10030.7 5911.76ZM10945.2 6085.89C10852.1 6072.86 10771.9 6010.67 10704.7 5899.33C10636.2 5790.58 10583.9 5642.75 10547.8 5455.83C10511.7 5275.55 10493.6 5067.07 10493.6 4830.4C10493.6 4589.7 10510.8 4376.95 10545.3 4192.17C10581.4 4004.53 10632.2 3853.98 10697.7 3740.5C10763.1 3624.42 10839.9 3559.5 10928.2 3545.76C10978.8 3537.71 11028.5 3551.21 11077.4 3586.27C11127.9 3626.07 11172.7 3692.88 11211.8 3786.7C11252.3 3881.46 11284.8 4008.09 11309.3 4166.58C11333.7 4330.52 11345.8 4532.48 11345.6 4772.47C11345.6 4829.33 11345.6 4886.07 11345.6 4942.69C11097 4941.03 10848.2 4939.37 10599.2 4937.72C10599.2 4829.69 10599.2 4721.77 10599.2 4613.98C10820.2 4606.64 11041.4 4599.29 11262.6 4591.95C11238.2 4635.78 11213.7 4679.49 11189.3 4723.08C11189.3 4555.82 11179.5 4408.58 11159.9 4281.36C11140.4 4154.62 11111.1 4057.01 11071.8 3988.54C11032.9 3920.79 10984.9 3890.23 10927.7 3896.86C10868.8 3903.73 10818.9 3946.49 10778 4025.15C10735.6 4098.59 10703.8 4192.88 10682.5 4308.01C10661.2 4422.2 10650.5 4543.74 10650.5 4672.62C10650.5 4742.98 10650.5 4813.34 10650.5 4883.7C10650.5 5060.67 10662.8 5210.16 10687.5 5332.17C10711.9 5459.39 10746.2 5557.59 10790.2 5626.76C10834.5 5692.62 10886 5728.51 10944.9 5734.44C10982.3 5738.23 11016.5 5728.99 11047.4 5706.72C11078.5 5679.95 11105.4 5637.78 11128.2 5580.21C11151 5526.19 11168.1 5456.78 11179.6 5371.97C11229.2 5411.53 11278.8 5451.33 11328.4 5491.37C11314 5616.69 11288.9 5727.45 11253.2 5823.63C11218.9 5914.84 11174.8 5984.85 11121 6033.65C11068.9 6077.72 11010.4 6095.13 10945.2 6085.89ZM11567.5 2595.17C11619.5 2582.38 11671.6 2569.7 11723.6 2557.15C11722.7 3753.53 11722.4 4947.9 11722.8 6140.26C11670.6 6133.15 11618.4 6126.16 11566.4 6119.29C11566 4946.84 11566.4 3772.13 11567.5 2595.17ZM12384 6287.02C12296.2 6274.94 12219.8 6204.7 12154.6 6076.3C12089.4 5950.5 12038.1 5777.91 12000.7 5558.53C11964.8 5341.76 11946.9 5093.6 11946.9 4814.05C11946.9 4525.26 11964.8 4274.61 12000.7 4062.1C12038.3 3841.78 12089.7 3665.88 12154.9 3534.39C12219.9 3405.04 12296.2 3333.61 12384 3320.11C12471.7 3306.6 12548.1 3357.18 12613.1 3471.85C12678.1 3593.62 12729.2 3768.69 12766.4 3997.07C12802.1 4222.61 12820 4492.92 12820 4808.01C12820 5112.91 12802.1 5380.97 12766.4 5612.19C12729.2 5840.81 12678.1 6014.11 12613.1 6132.09C12548.1 6247.7 12471.7 6299.34 12384 6287.02ZM12383.7 5877.65C12447.2 5883.81 12500.1 5837.02 12542.3 5737.28C12584.5 5641.33 12615.3 5511.74 12634.8 5348.51C12654.2 5184.1 12663.9 5004.29 12663.9 4809.07C12663.9 4613.86 12654.2 4431.8 12634.8 4262.88C12615.3 4099.65 12584.5 3967.81 12542.3 3867.37C12500.1 3773.31 12447.3 3729.84 12384 3736.95C12318.8 3744.29 12265.9 3798.31 12225.1 3898.99C12184.6 4003.23 12153.7 4134.6 12132.4 4293.09C12112.8 4455.13 12102.9 4628.43 12102.9 4812.98C12102.9 4997.53 12112.8 5168.35 12132.4 5325.42C12153.5 5483.67 12184.4 5612.19 12225.1 5710.98C12265.9 5815.7 12318.7 5871.25 12383.7 5877.65ZM13433.4 7618.21C13362.2 7600.92 13300.6 7556.97 13248.8 7486.37C13198.4 7416.72 13155.5 7330.72 13119.9 7228.38C13085.8 7127.46 13059 7018 13039.4 6900.02C13080.8 6821.61 13122.2 6742.72 13163.5 6663.35C13178.1 6723.53 13195.2 6792.23 13214.6 6869.46C13235.7 6947.17 13263.3 7015.87 13297.4 7075.57C13331.4 7130.3 13376.9 7163.47 13433.7 7175.07C13510 7190.47 13572.5 7143.09 13621.2 7032.93C13671.5 6915.9 13696.8 6725.42 13697 6461.51C13697 6244.26 13697 6026.9 13697 5809.42C13675.9 5868.17 13655.6 5940.43 13636.2 6026.19C13616.5 6106.03 13588 6176.51 13550.6 6237.63C13513.4 6298.04 13463.9 6324.22 13402.1 6316.16C13325.8 6306.45 13257.7 6237.16 13197.7 6108.28C13136 5986.51 13087.3 5812.26 13051.6 5585.54C13017.3 5360.95 13000.2 5091 13000.2 4775.67C13000.2 4460.35 13017.3 4184.94 13051.6 3949.45C13085.7 3711.6 13133.5 3525.86 13195.2 3392.25C13256.8 3251.29 13327.5 3174.65 13407.1 3162.33C13468.7 3152.85 13518.2 3180.57 13555.6 3245.48C13591.4 3305.66 13619 3378.27 13638.4 3463.32C13659.5 3548.37 13675 3620.63 13684.8 3680.09C13694.4 3505.73 13699.2 3331.83 13699.2 3158.42C13749.6 3150.84 13799.9 3143.26 13850.3 3135.68C13850.7 4259.8 13850.7 5383.81 13850.3 6507.7C13850.3 6791.99 13831.5 7019.54 13793.9 7190.36C13756.5 7359.27 13706.2 7477.72 13642.8 7545.72C13581.2 7613 13511.4 7637.16 13433.4 7618.21ZM13429 5860.24C13487.5 5865.21 13536.3 5825.88 13575.4 5742.25C13615.9 5657.68 13646.7 5531.05 13667.8 5362.37C13687.5 5192.51 13697.3 4989.12 13697.3 4752.22C13697.3 4520.99 13687.5 4320.69 13667.8 4151.3C13646.7 3977.41 13616.6 3843.2 13577.6 3748.67C13537 3655.1 13487.5 3611.62 13429 3618.26C13369 3625.13 13318.7 3681.27 13277.9 3786.7C13237.4 3890.94 13206.6 4028.11 13185.5 4198.21C13166 4367.12 13156.3 4553.92 13156.3 4758.61C13156.3 4973.49 13166.8 5162.66 13188 5326.13C13207.4 5490.3 13237.4 5618.83 13277.9 5711.69C13318.7 5805.27 13369 5854.79 13429 5860.24ZM14274.6 6481.05C14223.3 6474.18 14172.1 6467.31 14121 6460.44C14121.2 5338.45 14121.1 4216.57 14120.8 3094.81C14170.4 3087.46 14220 3080 14269.6 3072.42C14269.8 3245.6 14269.9 3418.9 14269.9 3592.32C14294.2 3421.5 14329.1 3277.82 14374.6 3161.26C14420 3049.44 14471.1 2989.15 14528.2 2980.38C14539.6 2978.49 14553.5 2979.32 14569.8 2982.87C14586.1 2980.26 14598.3 2978.37 14606.5 2977.18C14606.7 3166.95 14606.8 3356.83 14606.8 3546.83C14603.4 3541.38 14592 3536.76 14572.6 3532.97C14554.6 3523.02 14535.1 3519.23 14514 3521.6C14468.5 3526.81 14427.8 3566.37 14392.1 3640.29C14356.2 3713.73 14327.7 3812.28 14306.6 3935.95C14285.5 4053.46 14275 4190.27 14275.2 4346.39C14275.2 5058.3 14275 5769.85 14274.6 6481.05ZM15051.4 6667.97C14991 6659.44 14935.6 6609.1 14885 6516.94C14836.3 6426.21 14797.4 6297.8 14768.1 6131.73C14738.7 5966.84 14724 5767.37 14724 5533.3C14724.1 5329.09 14735.7 5164.08 14758.7 5038.28C14779.8 4911.77 14808.3 4812.04 14844.2 4739.07C14881.6 4665.63 14922.3 4610.07 14966.4 4572.4C15010.3 4534.5 15054.2 4505.6 15098.3 4485.7C15155.3 4452.76 15201.7 4429.43 15237.4 4415.69C15275.2 4395.55 15302.2 4366.18 15318.5 4327.56C15336.5 4288.94 15345.5 4225.57 15345.5 4137.44C15345.3 3967.1 15337.8 3829.1 15323 3723.44C15308.3 3618.02 15285.6 3538.77 15254.7 3485.71C15225.2 3432.64 15188.5 3408.71 15144.4 3413.92C15098.7 3419.14 15059.5 3448.16 15026.9 3500.99C14994.5 3559.74 14967.7 3629.87 14946.4 3711.36C14927 3798.54 14911.6 3882.17 14900.3 3962.25C14850.5 3905.39 14800.7 3848.89 14750.9 3792.74C14777 3573.36 14810.3 3400.78 14850.9 3274.98C14893.3 3147.99 14939.6 3053.35 14990 2991.04C15040.4 2934.42 15090 2902.32 15138.8 2894.74C15171.4 2889.53 15208.2 2899.36 15249.1 2924.23C15289.8 2949.35 15329.1 3003.24 15366.8 3085.92C15406.1 3169.08 15438 3294.76 15462.7 3462.96C15487.1 3638.75 15499.4 3873.29 15499.6 4166.58C15499.6 4993.39 15499.4 5819.61 15499 6645.23C15448.5 6638.36 15397.9 6631.49 15347.1 6624.62C15347.1 6457.84 15347.2 6291.05 15347.4 6124.27C15329.6 6204.34 15308.4 6289.99 15283.8 6381.2C15260.9 6466.01 15229.8 6537.08 15190.8 6594.41C15153.2 6651.27 15106.7 6675.79 15051.4 6667.97ZM15078.3 6153.76C15135.3 6159.69 15183.5 6124.03 15222.7 6046.8C15263.6 5962.7 15293.9 5852.3 15313.5 5715.6C15334.8 5578.2 15345.5 5433.8 15345.5 5282.42C15345.5 5109 15345.5 4935.46 15345.5 4761.81C15338.8 4793.32 15324.9 4821.75 15303.8 4847.1C15282.7 4866.05 15258.3 4884.89 15230.5 4903.6C15204.4 4922.32 15178.2 4937.83 15151.9 4950.15C15126 4962.47 15105.6 4971.59 15090.8 4977.52C15053.4 4995.76 15019.2 5026.2 14988.3 5068.84C14955.7 5105.09 14929.6 5165.62 14910 5250.43C14890.6 5329.09 14880.8 5435.22 14880.6 5568.84C14880.6 5696.53 14888.7 5800.53 14905 5880.85C14922.8 5967.79 14946.4 6034.01 14975.8 6079.49C15006.8 6125.45 15040.9 6150.21 15078.3 6153.76ZM15926.4 8144.15C15874.2 8131.83 15822 8119.51 15769.8 8107.19C15770.9 6356.68 15771.2 4602.61 15770.6 2844.99C15821.2 2837.17 15871.9 2829.35 15922.8 2821.54C15922.8 3028.36 15922.9 3235.18 15923.1 3442C15944.4 3367.37 15964.7 3276.16 15984.2 3168.37C16003.8 3060.1 16032.4 2963.56 16070 2878.75C16105.7 2787.07 16155.5 2736.25 16219.4 2726.3C16299.6 2713.74 16370 2787.54 16430.7 2947.69C16493 3103.57 16541.4 3337.99 16576 3650.95C16610.4 3959.88 16627.7 4333.13 16627.9 4770.7C16627.7 5201.39 16610.4 5575.12 16576 5891.86C16541.5 6205.53 16494 6441.02 16433.2 6598.32C16371 6759.66 16299.9 6834.64 16219.7 6823.27C16159.1 6814.74 16110.1 6767.95 16072.5 6682.9C16034.9 6591.93 16006.3 6489.11 15986.7 6374.44C15965.6 6266.65 15950.1 6176.03 15940.3 6102.59C15931.8 6784.89 15927.2 7465.41 15926.4 8144.15ZM16195.2 6256.82C16255.8 6262.98 16306.6 6200.2 16347.7 6068.48C16388.6 5935.57 16418.9 5756.94 16438.5 5532.59C16460 5300.18 16470.7 5043.14 16470.7 4761.46C16470.5 4480.01 16460.6 4226.64 16441 4001.34C16419.7 3777.7 16388.5 3603.21 16347.4 3477.89C16308.2 3353.51 16257.5 3294.88 16195.2 3301.98C16136.4 3308.85 16087.3 3374.36 16048.1 3498.5C16007.3 3621.69 15976.4 3793.09 15955.3 4012.71C15935.7 4224.98 15925.9 4476.22 15925.9 4766.43C15925.9 5050.01 15936.5 5304.45 15957.8 5529.75C15977.2 5749.13 16007.4 5923.37 16048.3 6052.49C16089.1 6183.02 16138 6251.13 16195.2 6256.82ZM17011.2 4328.27C17011.2 5170.95 17011 6012.09 17010.6 6851.69C16958.2 6844.35 16905.7 6837.01 16853.1 6829.66C16853.5 4982.73 16853.1 3143.97 16852 1313.38C16904.4 1300.59 16956.8 1287.79 17009.2 1275C17009.9 2067.22 17010.5 2863.94 17010.9 3665.16C17022.2 3279.72 17054.8 3001.59 17108.9 2830.77C17163 2658.31 17226.9 2566.15 17300.8 2554.3C17364.9 2544.12 17421.5 2593.27 17470.8 2701.78C17521.7 2818.81 17560.4 2997.32 17586.8 3237.31C17614.8 3471.61 17628.9 3774.85 17629.1 4147.04C17629.1 5079.5 17628.9 6009.96 17628.5 6938.4C17575.9 6930.82 17523.3 6923.36 17470.8 6916.02C17471.1 6019.79 17471.3 5121.56 17471.3 4221.31C17471.3 3882.53 17452.3 3623.11 17414.4 3443.06C17374.9 3257.8 17321.6 3169.2 17254.4 3177.25C17208.5 3182.94 17166.7 3230.91 17128.9 3321.17C17092.8 3418.07 17064.2 3549.67 17043.1 3715.98C17021.8 3888.69 17011.2 4092.78 17011.2 4328.27ZM17886.2 8557.08C17899.5 8361.63 17912.9 8165.35 17926.2 7968.24C17969 8021.78 18003.5 8043.82 18029.8 8034.34C18056.1 8024.86 18079.1 7969.54 18098.9 7868.39C18120.4 7774.33 18138.6 7622.36 18153.4 7412.46C18163.4 7288.08 18173.3 7163.47 18183.1 7038.62C18059.2 5515.3 17935.1 4011.52 17810.7 2527.3C17868.3 2518.29 17925.8 2509.17 17983.4 2499.93C18051.9 3379.1 18120.2 4267.27 18188.4 5164.44C18211.5 5451.81 18230.4 5731.48 18245 6003.45C18259.8 6283.71 18275.5 6556.27 18291.9 6821.13C18272.9 6819 18253.9 6816.75 18235 6814.38C18251.5 6553.55 18268 6284.06 18284.4 6005.93C18299.3 5726.62 18317.4 5446.95 18338.9 5166.92C18407.9 4254.12 18476.9 3338.71 18545.8 2420.69C18602.6 2415.95 18659.3 2412.04 18716 2408.96C18574.6 4193.82 18433.1 5960.92 18291.7 7710.25C18271.7 7942.89 18247.7 8131.83 18219.7 8277.05C18191.6 8420.62 18159.4 8525.33 18123.1 8591.19C18087 8656.58 18045.9 8683.7 17999.8 8672.57C17971.8 8665.7 17948 8648.88 17928.1 8622.11C17908.5 8602.68 17894.5 8581 17886.2 8557.08Z" fill="black" stroke="black"/>
<defs>
<clipPath id="clip0_29_185">
<rect width="6595" height="6595" fill="white" transform="translate(0 1771)"/>
</clipPath>
</defs>
</svg>
