<svg version="1.1" viewBox="0.0 0.0 960000.0 960000.0" fill="none" stroke="none" stroke-linecap="square" stroke-miterlimit="10" xmlns:xlink="http://www.w3.org/1999/xlink" xmlns="http://www.w3.org/2000/svg"><clipPath id="g3d7dda6c074_0_39.0"><path d="m0 0l960000.0 0l0 960000.0l-960000.0 0l0 -960000.0z" clip-rule="nonzero"/></clipPath><g clip-path="url(#g3d7dda6c074_0_39.0)"><path fill="#ff0000" fill-opacity="0.0" d="m0 0l960000.0 0l0 960000.0l-960000.0 0z" fill-rule="evenodd"/><path fill="#000000" d="m899036.5 358689.7l0 83063.47l-838073.0 0l0 -83063.47z" fill-rule="evenodd"/><path fill="#000000" d="m868974.7 326768.22c40567.062 0 73453.19 32886.125 73453.19 73453.19c0 19481.0 -7738.8125 38164.125 -21513.938 51939.28c-13775.125 13775.125 -32458.25 21513.938 -51939.25 21513.938c-40567.062 0 -73453.19 -32886.125 -73453.19 -73453.22c0 -40567.062 32886.125 -73453.19 73453.19 -73453.19z" fill-rule="evenodd"/><path fill="#000000" d="m91025.32 326768.22c40567.086 0 73453.195 32886.125 73453.195 73453.19c0 19481.0 -7738.797 38164.125 -21513.938 51939.28c-13775.148 13775.125 -32458.258 21513.938 -51939.258 21513.938c-40567.08 0 -73453.195 -32886.125 -73453.195 -73453.22c0 -40567.062 32886.117 -73453.19 73453.195 -73453.19z" fill-rule="evenodd"/><path fill="#ffffff" d="m33540.566 400205.97c0 -31747.938 25736.8 -57484.72 57484.754 -57484.72c15245.906 0 29867.383 6056.4062 40647.867 16836.875c10780.484 10780.5 16836.89 25401.969 16836.89 40647.844c0 31747.969 -25736.805 57484.75 -57484.758 57484.75c-31747.953 0 -57484.754 -25736.781 -57484.754 -57484.75z" fill-rule="evenodd"/><path fill="#000000" d="m811467.75 400221.4c0 -31747.938 25736.812 -57484.75 57484.75 -57484.75c15245.9375 0 29867.375 6056.4375 40647.875 16836.906c10780.5 10780.469 16836.875 25401.938 16836.875 40647.844c0 31747.938 -25736.75 57484.75 -57484.75 57484.75c-31747.938 0 -57484.75 -25736.812 -57484.75 -57484.75z" fill-rule="evenodd"/><path fill="#000000" d="m182304.23 400206.0c0 -164404.31 133276.05 -297680.38 297680.38 -297680.38c78949.72 0 154665.9 31362.672 210491.78 87188.56c55825.938 55825.89 87188.56 131542.08 87188.56 210491.8c0 164404.31 -133276.0 297680.38 -297680.34 297680.38c-164404.31 0 -297680.38 -133276.06 -297680.38 -297680.38z" fill-rule="evenodd"/><path fill="#000000" d="m182319.64 400221.4c0 -164404.31 133276.05 -297680.34 297680.38 -297680.34c78949.75 0 154665.94 31362.664 210491.81 87188.57c55825.875 55825.89 87188.56 131542.06 87188.56 210491.78c0 164404.34 -133276.06 297680.4 -297680.38 297680.4c-164404.31 0 -297680.38 -133276.06 -297680.38 -297680.4z" fill-rule="evenodd"/><path fill="#000000" d="m705112.2 595297.94l-225112.19 262176.44l-225112.19 -262176.44z" fill-rule="evenodd"/><path stroke="#595959" stroke-width="0.963254593175853" stroke-linejoin="round" stroke-linecap="butt" d="m705112.2 595297.94l-225112.19 262176.44l-225112.19 -262176.44z" fill-rule="evenodd"/><path fill="#ffffff" d="m219015.73 400206.0c0 -144129.12 116839.734 -260968.86 260968.86 -260968.86c69213.22 0 135591.72 27494.86 184532.84 76436.016c48941.188 48941.156 76436.0 115319.59 76436.0 184532.84c0 144129.12 -116839.75 260968.88 -260968.84 260968.88c-144129.12 0 -260968.86 -116839.75 -260968.86 -260968.88z" fill-rule="evenodd"/><path fill="#000000" d="m283014.5 335872.53c0 -45585.344 36954.22 -82539.56 82539.53 -82539.56c21890.875 0 42885.125 8696.109 58364.28 24175.281c15479.1875 15479.156 24175.281 36473.406 24175.281 58364.28c0 45585.312 -36954.22 82539.53 -82539.56 82539.53c-45585.312 0 -82539.53 -36954.22 -82539.53 -82539.53z" fill-rule="evenodd"/><path stroke="#000000" stroke-width="19.485564304461942" stroke-linejoin="round" stroke-linecap="butt" d="m283014.5 335872.53c0 -45585.344 36954.22 -82539.56 82539.53 -82539.56c21890.875 0 42885.125 8696.109 58364.28 24175.281c15479.1875 15479.156 24175.281 36473.406 24175.281 58364.28c0 45585.312 -36954.22 82539.53 -82539.56 82539.53c-45585.312 0 -82539.53 -36954.22 -82539.53 -82539.53z" fill-rule="evenodd"/><path fill="#000000" d="m511826.66 335872.53c0 -45585.344 36954.22 -82539.56 82539.53 -82539.56c21890.875 0 42885.125 8696.109 58364.25 24175.281c15479.1875 15479.156 24175.312 36473.406 24175.312 58364.28c0 45585.312 -36954.25 82539.53 -82539.56 82539.53c-45585.312 0 -82539.53 -36954.22 -82539.53 -82539.53z" fill-rule="evenodd"/><path stroke="#000000" stroke-width="19.485564304461942" stroke-linejoin="round" stroke-linecap="butt" d="m511826.66 335872.53c0 -45585.344 36954.22 -82539.56 82539.53 -82539.56c21890.875 0 42885.125 8696.109 58364.25 24175.281c15479.1875 15479.156 24175.312 36473.406 24175.312 58364.28c0 45585.312 -36954.25 82539.53 -82539.56 82539.53c-45585.312 0 -82539.53 -36954.22 -82539.53 -82539.53z" fill-rule="evenodd"/><path fill="#000000" d="m347409.28 495181.97l265181.4 0l0 70947.59l-265181.4 0z" fill-rule="evenodd"/><path stroke="#000000" stroke-width="10.84514435695538" stroke-linejoin="round" stroke-linecap="butt" d="m347409.28 495181.97l265181.4 0l0 70947.59l-265181.4 0z" fill-rule="evenodd"/></g></svg>